<svg width="20" height="20" viewBox="0 0 20 20" fill="none" xmlns="http://www.w3.org/2000/svg">
<path fill-rule="evenodd" clip-rule="evenodd" d="M0.796843 11.05C0.372205 11.0629 0.0174806 10.7291 0.00454268 10.3045C-0.0083952 9.87987 0.325353 9.52514 0.74999 9.5122L3.05661 9.44193C3.48125 9.42899 3.83597 9.76274 3.84891 10.1874C3.86185 10.612 3.5281 10.9667 3.10346 10.9797L0.796843 11.05ZM9.88277 6.1556C12.006 6.09091 13.7796 7.75965 13.8443 9.88283C13.909 12.006 12.2402 13.7796 10.117 13.8443C7.99385 13.909 6.22022 12.2403 6.15553 10.1171C6.09085 7.99391 7.75959 6.22028 9.88277 6.1556ZM16.1509 9.81256C16.1638 10.2372 16.5186 10.5709 16.9432 10.558L19.2498 10.4877C19.6745 10.4748 20.0082 10.1201 19.9953 9.69543C19.9823 9.27079 19.6276 8.93704 19.203 8.94998L16.8963 9.02026C16.4717 9.03319 16.138 9.38792 16.1509 9.81256ZM8.94992 0.796902C8.93698 0.372266 9.27073 0.0175411 9.69536 0.00460324C10.12 -0.00833464 10.4747 0.325414 10.4877 0.75005L10.5579 3.05667C10.5709 3.48131 10.2371 3.83603 9.8125 3.84897C9.38786 3.86191 9.03313 3.52816 9.0202 3.10353L8.94992 0.796902ZM10.1873 16.151C9.76268 16.1639 9.42893 16.5186 9.44187 16.9433L9.51214 19.2499C9.52508 19.6745 9.87981 20.0083 10.3044 19.9953C10.7291 19.9824 11.0628 19.6277 11.0499 19.203L10.9796 16.8964C10.9667 16.4718 10.612 16.138 10.1873 16.151ZM2.7499 4.23487C2.44049 3.94375 2.42566 3.45693 2.71677 3.14752C3.00789 2.83811 3.49471 2.82327 3.80413 3.11439L5.48485 4.69572C5.79426 4.98684 5.80909 5.47366 5.51798 5.78307C5.22686 6.09249 4.74004 6.10732 4.43063 5.8162L2.7499 4.23487ZM14.4818 14.2169C14.1907 14.5263 14.2055 15.0131 14.515 15.3042L16.1957 16.8855C16.5051 17.1767 16.9919 17.1618 17.283 16.8524C17.5741 16.543 17.5593 16.0562 17.2499 15.7651L15.5692 14.1837C15.2598 13.8926 14.7729 13.9074 14.4818 14.2169ZM15.765 2.74996C16.0561 2.44055 16.5429 2.42572 16.8524 2.71684C17.1618 3.00795 17.1766 3.49477 16.8855 3.80419L15.3041 5.48491C15.013 5.79432 14.5262 5.80915 14.2168 5.51804C13.9074 5.22692 13.8925 4.7401 14.1837 4.43069L15.765 2.74996ZM5.78301 14.4819C5.4736 14.1908 4.98678 14.2056 4.69566 14.515L3.11433 16.1957C2.82321 16.5052 2.83805 16.992 3.14746 17.2831C3.45687 17.5742 3.94369 17.5594 4.23481 17.25L5.81614 15.5692C6.10726 15.2598 6.09243 14.773 5.78301 14.4819Z" fill="white"/>
</svg>
